<svg xmlns="http://www.w3.org/2000/svg" width="195.511" height="60.511" viewBox="0 0 195.511 60.511">
  <g id="Group_256" data-name="Group 256" transform="translate(-0.408 -0.234)">
    <g id="Group_254" data-name="Group 254" transform="translate(87.867 43.269)">
      <path id="Path_672" data-name="Path 672" d="M76.43,48.089h5.087v-.528H77.025V39.078H76.43v9.012Z" transform="translate(-71.162 -34.76)" fill="#fff"/>
      <path id="Path_673" data-name="Path 673" d="M86.93,41.1a3.181,3.181,0,0,0-3.132,3.37,3.267,3.267,0,0,0,3.316,3.409,3.186,3.186,0,0,0,2.841-1.7h-.687a2.358,2.358,0,0,1-2.181,1.2,2.75,2.75,0,0,1-2.695-2.814h5.681v-.093A3.193,3.193,0,0,0,86.93,41.1Zm0,.528A2.607,2.607,0,0,1,89.466,44.1H84.419a2.537,2.537,0,0,1,2.51-2.471Z" transform="translate(-69.537 -34.314)" fill="#fff"/>
      <path id="Path_674" data-name="Path 674" d="M92.291,42.1h1v3.938c0,1.295.582,2.008,1.7,2.008a4.666,4.666,0,0,0,.859-.1v-.449a4.5,4.5,0,0,1-.832.092c-.925,0-1.177-.74-1.177-1.532V42.1h1.942V41.64H93.851V39.619H93.3V41.64h-1V42.1Z" transform="translate(-67.665 -34.641)" fill="#fff"/>
      <path id="Path_675" data-name="Path 675" d="M98.286,38.655l.053,2.867h.476l.066-2.867Z" transform="translate(-66.343 -34.854)" fill="#fff"/>
      <path id="Path_676" data-name="Path 676" d="M105.529,42.767a1.9,1.9,0,0,0-2.075-1.665c-1.189,0-2.048.687-2.048,1.665,0,1.031.792,1.428,2.075,1.825,1.1.343,1.665.647,1.665,1.466a1.46,1.46,0,0,1-1.626,1.335c-1.057,0-1.6-.476-1.692-1.388h-.554a2.245,2.245,0,0,0,4.427-.013c0-1-.754-1.454-2.022-1.876-1.242-.41-1.717-.648-1.717-1.335,0-.766.607-1.2,1.532-1.2a1.413,1.413,0,0,1,1.494,1.189Z" transform="translate(-65.684 -34.314)" fill="#fff"/>
      <path id="Path_677" data-name="Path 677" d="M114.244,41.429a3.212,3.212,0,0,0-3.329,3.356,3.268,3.268,0,0,0,3.356,3.41,2.921,2.921,0,0,0,2.921-1.97h-.621a2.269,2.269,0,0,1-2.286,1.467,2.74,2.74,0,0,1-2.775-2.894,2.679,2.679,0,0,1,2.748-2.868,2.23,2.23,0,0,1,2.207,1.335h.635a2.831,2.831,0,0,0-2.855-1.837Zm10.446.039a1.943,1.943,0,0,0-.489-.052,1.834,1.834,0,0,0-1.7,1.229h-.027v-1h-.555v6.329h.555V44.6c0-1.85.726-2.657,1.718-2.657a2.063,2.063,0,0,1,.5.067v-.543Zm6.877-.039a3.182,3.182,0,0,0-3.132,3.37,3.267,3.267,0,0,0,3.317,3.409,3.189,3.189,0,0,0,2.841-1.7h-.688a2.354,2.354,0,0,1-2.18,1.2,2.752,2.752,0,0,1-2.7-2.814h5.682V44.8a3.194,3.194,0,0,0-3.145-3.37Zm0,.528a2.607,2.607,0,0,1,2.537,2.471h-5.048a2.537,2.537,0,0,1,2.511-2.471Zm14.12-.317h-.555v1.283h-.04a3.072,3.072,0,0,0-2.748-1.494,3.386,3.386,0,0,0-.079,6.766,3.184,3.184,0,0,0,2.841-1.533h.027v1.307h.555V41.64ZM139.648,44.8a2.763,2.763,0,1,1,5.523.039,2.772,2.772,0,0,1-2.749,2.828,2.709,2.709,0,0,1-2.774-2.867Zm10.63-2.7h1v3.938c0,1.295.581,2.008,1.7,2.008a4.653,4.653,0,0,0,.859-.1v-.449a4.49,4.49,0,0,1-.832.092c-.925,0-1.175-.74-1.175-1.532V42.1h1.942V41.64h-1.942V39.619h-.555V41.64h-1V42.1Zm10.8-.674a3.182,3.182,0,0,0-3.132,3.37,3.267,3.267,0,0,0,3.316,3.409,3.186,3.186,0,0,0,2.841-1.7h-.687a2.354,2.354,0,0,1-2.18,1.2,2.752,2.752,0,0,1-2.7-2.814h5.682V44.8a3.194,3.194,0,0,0-3.145-3.37Zm0,.528a2.607,2.607,0,0,1,2.537,2.471h-5.048a2.537,2.537,0,0,1,2.51-2.471Z" transform="translate(-63.559 -34.641)" fill="#fff"/>
      <path id="Path_678" data-name="Path 678" d="M72.113,40.222V35.54H76.8" transform="translate(-72.113 -35.54)" fill="none" stroke="#fff" stroke-miterlimit="22.926" stroke-width="0.216"/>
      <path id="Path_679" data-name="Path 679" d="M161.279,40.222V35.54H156.6" transform="translate(-53.488 -35.54)" fill="none" stroke="#fff" stroke-miterlimit="22.926" stroke-width="0.216"/>
      <path id="Path_680" data-name="Path 680" d="M72.113,45.934v4.682H76.8" transform="translate(-72.113 -33.249)" fill="none" stroke="#fff" stroke-miterlimit="22.926" stroke-width="0.216"/>
      <path id="Path_681" data-name="Path 681" d="M161.279,45.934v4.682H156.6" transform="translate(-53.488 -33.249)" fill="none" stroke="#fff" stroke-miterlimit="22.926" stroke-width="0.216"/>
      <path id="Path_682" data-name="Path 682" d="M157.837,37.2a1.472,1.472,0,1,0,1.472,1.472,1.472,1.472,0,0,0-1.472-1.472Z" transform="translate(-53.539 -35.175)" fill="#ec1c24" fill-rule="evenodd"/>
    </g>
    <g id="Group_255" data-name="Group 255" transform="translate(0.658 0.484)">
      <path id="Path_683" data-name="Path 683" d="M57.319,20.357C58.741,9.623,70.431,4.93,78.748,11.318a12.867,12.867,0,0,1,4.883,11.8C82.209,33.852,70.52,38.545,62.2,32.157a12.864,12.864,0,0,1-4.883-11.8ZM80.166,9.9C71.29,2.557,58.632,7.6,55.73,17.655a15.381,15.381,0,0,0,5.053,15.919,15.19,15.19,0,0,0,9.813,3.4c14.148-.12,20.7-17.865,9.571-27.072Z" transform="translate(11.359 0.823)" fill="#ffdc4d" stroke="#ffdc4d" stroke-miterlimit="10" stroke-width="0.5" fill-rule="evenodd"/>
      <path id="Path_684" data-name="Path 684" d="M76.112,22.917c-6.389,3.737-13.679-1.44-11.552-8.9-2.838,1.157-5.03,8.57-.176,12.122,5.421,3.967,11.27-.29,11.727-3.217Z" transform="translate(12.761 2.499)" fill="#ffdc4d" stroke="#ffdc4d" stroke-miterlimit="10" stroke-width="0.5" fill-rule="evenodd"/>
      <path id="Path_685" data-name="Path 685" d="M86.146,18.407a13.988,13.988,0,0,0-1.672-3.916c-1.042-1.687-3.6-4.594-5.88-5.078,2.927,3.733,4.768,7.848,4.693,12.184.636-.784,1.3-1.538,1.976-2.26q.438-.469.884-.929Z" transform="translate(16.524 1.484)" fill="#ffdc4d" stroke="#ffdc4d" stroke-miterlimit="10" stroke-width="0.5" fill-rule="evenodd"/>
      <path id="Path_686" data-name="Path 686" d="M83.135,5.483c-.961-.049-5.153-.023-6,.625,3.664.134,7.114-.057,9.377,2.108a6.051,6.051,0,0,1,2.058,3.621,51.5,51.5,0,0,1,.111,5.28q.837-.784,1.7-1.538c-.078-3.312-.463-6.354-2.436-8.11a8.353,8.353,0,0,0-4.8-1.986Z" transform="translate(16.202 0.615)" fill="#ffdc4d" stroke="#ffdc4d" stroke-miterlimit="10" stroke-width="0.5" fill-rule="evenodd"/>
      <path id="Path_687" data-name="Path 687" d="M55.564,5.839c.961-.049,5.153-.023,6,.625-3.664.135-7.114-.057-9.377,2.108A6.494,6.494,0,0,0,50.456,11c-.113-.011-.228-.017-.344-.017a3.553,3.553,0,0,0-.521.038,4.3,4.3,0,0,0-.725.15,6.588,6.588,0,0,1,1.9-3.344,8.357,8.357,0,0,1,4.8-1.987Z" transform="translate(9.97 0.693)" fill="#ffdc4d" stroke="#ffdc4d" stroke-miterlimit="10" stroke-width="0.5" fill-rule="evenodd"/>
      <path id="Path_688" data-name="Path 688" d="M62.354,6.491l1.174-1.715C65.371,1.4,65.493,1.833,69.4,1.806c1.828-.012,3.522-.123,4.395,1.269.747,1.194,1.272,2.468,2.137,3.638a16.233,16.233,0,0,0-1.593-4.627C73.377.56,71.677.488,69.4.484c-5.261-.009-6,1.159-7.045,6.007Z" transform="translate(12.944 -0.484)" fill="#ffdc4d" stroke="#ffdc4d" stroke-miterlimit="10" stroke-width="0.5" fill-rule="evenodd"/>
      <path id="Path_689" data-name="Path 689" d="M78.221,25.621c-6,7.776-18.964,4.213-17.935-6.622.189-3.148,1.6-4.356,2.149-5.8-5.114,3.483-4.663,11.486.05,15.377,5,4.12,12.788,3.24,15.735-2.954Z" transform="translate(12.154 2.319)" fill="#ffdc4d" stroke="#ffdc4d" stroke-miterlimit="10" stroke-width="0.5" fill-rule="evenodd"/>
      <path id="Path_690" data-name="Path 690" d="M77.424,18.353c-.134-4.13-4.817-8.31-9.451-7.613,3.771,1.311,5.665,1.756,7.909,4.894.594.831.961,1.8,1.543,2.719Z" transform="translate(14.183 1.76)" fill="#ffdc4d" stroke="#ffdc4d" stroke-miterlimit="10" stroke-width="0.5" fill-rule="evenodd"/>
      <path id="Path_691" data-name="Path 691" d="M21.247,9.124a5.577,5.577,0,0,1,1.422.272,4.718,4.718,0,0,1,2.092,1.335,5.464,5.464,0,0,1,1.15,2.032,8.133,8.133,0,0,1,.4,2.282c.011.181.016.36.016.528a11.436,11.436,0,0,1-.124,1.7,9.8,9.8,0,0,1-.447,1.814,3.194,3.194,0,0,1-.72,1.231H24.92c-.284,0-.475-.077-.557-.229a1.184,1.184,0,0,1-.131-.582.181.181,0,0,1-.016-.082,1.57,1.57,0,0,0,.153-.229,3.854,3.854,0,0,0,.25-.522,8.707,8.707,0,0,0,.382-1.6,9.213,9.213,0,0,0-.24-3.923,4.361,4.361,0,0,0-.878-1.607,3.421,3.421,0,0,0-1.579-1,4.687,4.687,0,0,0-1.53-.223,15.165,15.165,0,0,0-1.554.12A14.348,14.348,0,0,0,15.9,11.488a17.151,17.151,0,0,0-5.253,3.5,25.626,25.626,0,0,0-4.168,5.269,32.938,32.938,0,0,0-2.9,6.233A28.949,28.949,0,0,0,1.905,35.83c0,.022,0,.78.006,2.282a8.5,8.5,0,0,0,1.8,4.789,8.583,8.583,0,0,0,4.179,3.193,9.518,9.518,0,0,0,2.828.431,10.459,10.459,0,0,0,2.027-.207A19.608,19.608,0,0,0,17.8,44.569a36.07,36.07,0,0,0,4.566-2.724,39.032,39.032,0,0,0,4.591-4.058q2.543-2.567,4.888-5.263t3.895-4.566l1.532-1.88a1.063,1.063,0,0,1,.447-.131.419.419,0,0,1,.31.184,1.247,1.247,0,0,1,.186.692l-1.548,1.9q-1.552,1.9-3.912,4.6t-4.936,5.307A37.336,37.336,0,0,1,23.05,42.82a34.863,34.863,0,0,1-4.712,2.839,20.007,20.007,0,0,1-5.371,1.836,11.312,11.312,0,0,1-2.174.207,12.8,12.8,0,0,1-3.8-.675,9.245,9.245,0,0,1-4.255-3.411A13.059,13.059,0,0,1,.658,35.989c0-.022.006-.818.011-2.392a26.74,26.74,0,0,1,1.76-7.5,34.261,34.261,0,0,1,3.029-6.472A26.325,26.325,0,0,1,9.822,14.1a18.431,18.431,0,0,1,5.617-3.732A14.169,14.169,0,0,1,20.659,9.1a5.153,5.153,0,0,1,.588.027ZM44.107,27.129a.452.452,0,0,1,.382-.175h.186a.53.53,0,0,1,.359.225.469.469,0,0,1,.115.332,1.131,1.131,0,0,1-.049.305l-.594.827c-.4.566-.926,1.249-1.563,2.043s-1.329,1.585-2.076,2.364a16.946,16.946,0,0,1-1.656,1.494,4.923,4.923,0,0,1-1.677.882,2.113,2.113,0,0,1-.572.082,1.866,1.866,0,0,1-1.134-.4,3.09,3.09,0,0,1-.834-1.917,2.848,2.848,0,0,1-.032-.431,4.716,4.716,0,0,1,.2-1.291,17.964,17.964,0,0,1,.557-1.934c.212-.637.408-1.177.588-1.623l.272-.67c.175-.245.337-.371.5-.371a2.086,2.086,0,0,1,.218.039.6.6,0,0,1,.326.3.652.652,0,0,1,.11.333.387.387,0,0,1-.033.157l-.25.643c-.186.436-.382.958-.594,1.579s-.387,1.231-.528,1.82a5.668,5.668,0,0,0-.157,1.1.867.867,0,0,0,.016.175c.126.681.278,1.073.447,1.181a.437.437,0,0,0,.239.11h.049a1.39,1.39,0,0,0,.3-.044A7.927,7.927,0,0,0,40,32.208c.7-.736,1.368-1.493,1.988-2.266s1.129-1.444,1.526-2l.588-.812Zm-6.047-1.771a1.419,1.419,0,0,1-.463-.1.393.393,0,0,1-.272-.393,4.054,4.054,0,0,1,.959-2.218h.076a1.433,1.433,0,0,1,.719.159.194.194,0,0,1,.131.142l.017.049-.017.066c-.175.327-.485,1.068-.942,2.216a.252.252,0,0,1-.207.082Zm9.224-.386a1.676,1.676,0,0,1,1.291.642,1.89,1.89,0,0,1,.431,1.183v.044a2.392,2.392,0,0,1-.4,1.166,6.37,6.37,0,0,1-1.837,1.755A17.475,17.475,0,0,1,44.8,30.943c-.589.3-.932.463-1.03.5A2.575,2.575,0,0,0,45,33.548a2.615,2.615,0,0,0,1.439.463,2.706,2.706,0,0,0,1.242-.321,9.065,9.065,0,0,0,2.811-2.251,24.438,24.438,0,0,0,1.554-1.972q.677-.963,1.062-1.634l.387-.653a.594.594,0,0,1,.4-.165,1.35,1.35,0,0,1,.223.033.584.584,0,0,1,.316.24.514.514,0,0,1,.146.354.324.324,0,0,1-.016.109l-.4.687c-.278.469-.654,1.046-1.128,1.727a21.821,21.821,0,0,1-1.651,2.075,10.254,10.254,0,0,1-3.209,2.55,4.319,4.319,0,0,1-1.771.387l-.615-.011a3.033,3.033,0,0,1-1.46-.615,3.952,3.952,0,0,1-1.351-1.493,4.142,4.142,0,0,1-.436-1.776A6.644,6.644,0,0,1,43.611,27.8a7,7,0,0,1,2.316-2.408,2.683,2.683,0,0,1,1.356-.419Zm-.016,1.214h-.033a1.686,1.686,0,0,0-.7.239,5.967,5.967,0,0,0-1.88,1.994A6.429,6.429,0,0,0,43.96,30a14.08,14.08,0,0,0,2.125-1.227,5.748,5.748,0,0,0,1.5-1.4,1.149,1.149,0,0,0,.207-.561.713.713,0,0,0-.033-.212.809.809,0,0,0-.131-.234.615.615,0,0,0-.164-.142.5.5,0,0,0-.2-.033Zm13.276-13.44a1.187,1.187,0,0,1,.2-.017,1.174,1.174,0,0,1,.431.082,1.43,1.43,0,0,1,.795.909,2.184,2.184,0,0,1,.082.605,2.857,2.857,0,0,1-.082.67,24.91,24.91,0,0,1-2.528,6.434,46.492,46.492,0,0,1-3.312,5.2c-1.052,1.4-1.694,2.207-1.917,2.43a38.6,38.6,0,0,0-.256,3.88,5.592,5.592,0,0,0,.288,2.174,1.579,1.579,0,0,0,.154.31.288.288,0,0,0,.142.126,1.369,1.369,0,0,0,.151.044h.033a2.1,2.1,0,0,0,.926-.431,16.089,16.089,0,0,0,3.079-3.46,42.949,42.949,0,0,0,2.685-4.233,1.24,1.24,0,0,1,.447-.1.568.568,0,0,1,.36.142,1.062,1.062,0,0,1,.261.528,43.856,43.856,0,0,1-2.713,4.347,17.037,17.037,0,0,1-3.4,3.743,2.714,2.714,0,0,1-1.727.653H54.6a1.8,1.8,0,0,1-1.471-1.209,7.043,7.043,0,0,1-.431-2.844A34.19,34.19,0,0,1,53.14,27.8v-.049a53.576,53.576,0,0,1,2.767-9.234,15.949,15.949,0,0,1,2.757-4.637,4.325,4.325,0,0,1,1.242-.953,1.955,1.955,0,0,1,.637-.179Zm.164,1.2a.476.476,0,0,0-.115.016,1.269,1.269,0,0,0-.173.066,2.708,2.708,0,0,0-.878.686,13.8,13.8,0,0,0-2.277,3.836,49.075,49.075,0,0,0-2.512,7.8,49.42,49.42,0,0,0,3.405-5.187A24.012,24.012,0,0,0,60.8,14.747a2.649,2.649,0,0,0,.049-.447.581.581,0,0,0-.032-.223A.368.368,0,0,0,60.784,14l-.017-.027a.019.019,0,0,0,0-.016.028.028,0,0,0-.022-.011Z" transform="translate(-0.658 1.415)" fill="#ffdc4d" stroke="#ffdc4d" stroke-miterlimit="10" stroke-width="0.5"/>
      <path id="Path_692" data-name="Path 692" d="M116.718,11.695a.521.521,0,0,1,.349.1.548.548,0,0,1,.159.19.639.639,0,0,0,.081.115l-.958,4.277q.736-.064,1.4-.131c.442-.038.856-.077,1.242-.109s.757-.066,1.1-.1.67-.06.964-.087.577-.055.838-.076.5-.055.719-.077.42-.038.605-.055.354-.027.507-.038.289-.027.414-.038.24-.027.333-.033a2.456,2.456,0,0,0,.255-.027c.077-.011.143-.017.192-.022s.1-.011.135-.011a.584.584,0,0,0,.1,0,.375.375,0,0,1,.055-.011h.049a1,1,0,0,1,.305.67.875.875,0,0,1-.19.528l-9.311.86q-1.357,6.113-2.991,14.264a80.189,80.189,0,0,0-1.61,8.823,5.96,5.96,0,0,0-.033.687,4.53,4.53,0,0,0,.159,1.291c.074.245.146.469.223.67a4.737,4.737,0,0,1,.19.594,1.563,1.563,0,0,1-.478.3.747.747,0,0,1-.267.044,1.471,1.471,0,0,1-.431-.076,2.464,2.464,0,0,0-.1-.289c-.09-.233-.188-.549-.305-.942a5.431,5.431,0,0,1-.19-1.548,7.534,7.534,0,0,1,.032-.86,73.058,73.058,0,0,1,1.567-8.7q1.606-8.015,2.974-14.143c-1.46.135-2.882.277-4.277.414q-5.655.573-9.687,1.2-1.986.319-3.257.637a6.009,6.009,0,0,0-1.565.572.955.955,0,0,1-.528-.294.585.585,0,0,1-.109-.343.877.877,0,0,0-.1-.316,5.778,5.778,0,0,1,2.01-.785q1.357-.335,3.35-.654,4.086-.637,9.769-1.214l4.663-.447,1.052-4.674a1.97,1.97,0,0,1,.593-.131Z" transform="translate(20.203 1.988)" fill="#ffdc4d" stroke="#ffdc4d" stroke-miterlimit="10" stroke-width="0.5"/>
      <path id="Path_693" data-name="Path 693" d="M121.437,21.873a.611.611,0,0,1,.5.255.5.5,0,0,1,.126.332.706.706,0,0,1-.033.207l-.19.626c-.126.415-.278.943-.447,1.587s-.333,1.334-.5,2.065a14.38,14.38,0,0,0-.333,2.875v.11a2.412,2.412,0,0,0,.142.876.7.7,0,0,0,.055.137.126.126,0,0,0,.044.049c.011,0,.027.016.043.022a.1.1,0,0,0,.066.016,1.506,1.506,0,0,0,.463-.124,5.623,5.623,0,0,0,1.024-.638,20.4,20.4,0,0,0,2.49-2.3q1.292-1.373,2.185-2.474l.893-1.1a.4.4,0,0,1,.322-.131c.022,0,.087,0,.2.016a.589.589,0,0,1,.359.24.45.45,0,0,1,.132.338.809.809,0,0,1-.05.266l-.909,1.117q-.924,1.137-2.251,2.556a22.325,22.325,0,0,1-2.647,2.447,6.039,6.039,0,0,1-1.28.762,1.934,1.934,0,0,1-.893.223,1.784,1.784,0,0,1-.415-.049,1.475,1.475,0,0,1-.942-.909,3.462,3.462,0,0,1-.239-1.307,16.24,16.24,0,0,1,.365-3.254c.076-.343.157-.67.239-.975.044-.153.082-.305.115-.463-.137.19-.245.338-.322.447-.071.093-.151.2-.228.3s-.2.251-.343.437c-.769.953-1.526,1.831-2.283,2.614a12.6,12.6,0,0,1-1.024.981,2.949,2.949,0,0,1-1,.582,1.94,1.94,0,0,1-.605.1,1.625,1.625,0,0,1-.675-.148,1.428,1.428,0,0,1-.681-.936,4.627,4.627,0,0,1-.1-.959,6.254,6.254,0,0,1,.175-1.406c.121-.577.256-1.122.414-1.634s.306-.948.431-1.285l.181-.5a.752.752,0,0,1,.5-.206s.065,0,.162,0a.517.517,0,0,1,.327.2.44.44,0,0,1,.148.321.351.351,0,0,1-.017.11l-.173.48c-.12.332-.251.741-.4,1.231s-.277.986-.381,1.5a8.923,8.923,0,0,0-.142,1.084v.175a2.919,2.919,0,0,0,.044.561.378.378,0,0,0,.043.12c.017.028.028.044.033.055s.011.016.022.016h.168a.762.762,0,0,0,.181-.032,4.337,4.337,0,0,0,.544-.376,10.311,10.311,0,0,0,.975-.867c.714-.758,1.444-1.6,2.2-2.539s1.4-1.782,1.928-2.507l.8-1.068a.623.623,0,0,1,.48-.255Z" transform="translate(24.066 4.232)" fill="#ffdc4d" stroke="#ffdc4d" stroke-miterlimit="10" stroke-width="0.5"/>
      <path id="Path_694" data-name="Path 694" d="M139,12.194a.943.943,0,0,1,.4.093,1.034,1.034,0,0,1,.589.785l.065.589v.179a8.986,8.986,0,0,1-.114,1.323,36.109,36.109,0,0,1-2.856,9.224h.017a22.1,22.1,0,0,1-1.183,2.457q-.335.687-.719,1.39v.43c-.093,1.139-.142,2.43-.142,3.863,0,.256,0,.9.022,1.923a18.584,18.584,0,0,0,1.3,5.1.36.36,0,0,1,.017.115.807.807,0,0,1-.1.3.7.7,0,0,1-.349.338.439.439,0,0,1-.223.066.55.55,0,0,1-.332-.131,17.6,17.6,0,0,1-1.488-5.313,21.45,21.45,0,0,1-.126-2.38,21.841,21.841,0,0,1,.192-2.921,7.974,7.974,0,0,1-4.724,2.828,6.032,6.032,0,0,1-.686.043,3.7,3.7,0,0,1-3.863-3.879c0-.148,0-.294.011-.447v-.027a4.914,4.914,0,0,1,2.893-3.672,3.844,3.844,0,0,1,1.5-.305,6.956,6.956,0,0,1,1.46.223,5.058,5.058,0,0,1,2.229,1.548,1.447,1.447,0,0,1,.033.288.843.843,0,0,1-.159.513.5.5,0,0,1-.4.175,1.247,1.247,0,0,1-.431-.1,4.194,4.194,0,0,0-1.977-1.291,2.8,2.8,0,0,0-.654-.082,2.533,2.533,0,0,0-1.084.24,3.594,3.594,0,0,0-2.109,2.653c-.011.114-.016.228-.016.332a2.339,2.339,0,0,0,.752,1.869,2.529,2.529,0,0,0,1.847.67,3.919,3.919,0,0,0,.48-.032,5.634,5.634,0,0,0,2.332-.987,10.392,10.392,0,0,0,2.521-2.6,33.687,33.687,0,0,1,.4-4.152,51.239,51.239,0,0,1,1.6-6.684q1.389-4.355,3.084-4.55Zm-.256,1.706a.433.433,0,0,1-.1.1.838.838,0,0,1-.093.11.786.786,0,0,0-.115.162,35.373,35.373,0,0,0-2.822,9.366l-.148,1.123.272-.561a33.734,33.734,0,0,0,2.043-5.377,30.255,30.255,0,0,0,.878-3.83,9.1,9.1,0,0,0,.082-1.09Z" transform="translate(26.69 2.098)" fill="#ffdc4d" stroke="#ffdc4d" stroke-miterlimit="10" stroke-width="0.5"/>
      <path id="Path_695" data-name="Path 695" d="M144.581,24.682a.452.452,0,0,1,.382-.175h.186a.532.532,0,0,1,.359.225.469.469,0,0,1,.115.332,1.131,1.131,0,0,1-.049.305l-.594.827c-.4.566-.926,1.249-1.563,2.043s-1.329,1.585-2.076,2.364a16.942,16.942,0,0,1-1.656,1.494,4.928,4.928,0,0,1-1.678.882,2.1,2.1,0,0,1-.571.082,1.866,1.866,0,0,1-1.134-.4,3.09,3.09,0,0,1-.834-1.917,2.7,2.7,0,0,1-.033-.431,4.72,4.72,0,0,1,.2-1.291,17.971,17.971,0,0,1,.557-1.934c.211-.637.408-1.177.587-1.623l.273-.67c.173-.245.337-.371.5-.371a2.029,2.029,0,0,1,.217.039.6.6,0,0,1,.327.3.65.65,0,0,1,.109.333.387.387,0,0,1-.032.157l-.25.643c-.186.436-.382.958-.594,1.579s-.387,1.231-.528,1.82a5.667,5.667,0,0,0-.157,1.1.868.868,0,0,0,.016.175c.124.681.277,1.073.447,1.181a.434.434,0,0,0,.239.11h.049a1.39,1.39,0,0,0,.3-.044,7.927,7.927,0,0,0,2.795-2.059q1.055-1.1,1.988-2.266c.621-.78,1.128-1.444,1.526-2l.588-.812Zm-6.047-1.771a1.42,1.42,0,0,1-.463-.1.393.393,0,0,1-.272-.393,4.054,4.054,0,0,1,.959-2.218h.076a1.433,1.433,0,0,1,.719.159.2.2,0,0,1,.131.142l.017.049-.017.066c-.175.327-.485,1.068-.942,2.216a.252.252,0,0,1-.207.082Z" transform="translate(29.056 3.862)" fill="#ffdc4d" stroke="#ffdc4d" stroke-miterlimit="10" stroke-width="0.5"/>
      <path id="Path_696" data-name="Path 696" d="M147.3,21.824h.159a3.966,3.966,0,0,1,1.231.206,2.839,2.839,0,0,1,1.754,2.01,4.549,4.549,0,0,1,.11,1.025,5.939,5.939,0,0,1-.333,1.9,9.046,9.046,0,0,1-1.051,2.086,9.1,9.1,0,0,0,1.373-.714,19.3,19.3,0,0,0,2.114-1.606c.631-.557,1.139-1.046,1.524-1.461l.557-.6a1.21,1.21,0,0,1,.6.153.737.737,0,0,1,.327.626l-.588.638c-.409.441-.943.953-1.613,1.552a19.768,19.768,0,0,1-2.266,1.721,8.949,8.949,0,0,1-3.5,1.422,8.345,8.345,0,0,1-1.977,1.357,3.3,3.3,0,0,1-1.439.381,1.124,1.124,0,0,1-.19-.016,1.8,1.8,0,0,1-1.231-.654,2.957,2.957,0,0,1-.522-1.214,6.842,6.842,0,0,1-.082-1.068v-.316a15.943,15.943,0,0,1,.431-3.051,2.457,2.457,0,0,1,.1-.381l.033-.164a.5.5,0,0,0,.027-.093c.011-.044.022-.087.033-.137a1.208,1.208,0,0,1,.033-.12v-.049l.032.016a5.608,5.608,0,0,1,.862-1.6,5.4,5.4,0,0,1,1.563-1.307,4.148,4.148,0,0,1,1.933-.544Zm.017,1.2a3.67,3.67,0,0,0-2.572,1.422,3.97,3.97,0,0,0-.7,1.274.822.822,0,0,1-.022.131c-.016.072-.038.159-.054.251a3.094,3.094,0,0,0-.082.321,3.318,3.318,0,0,0-.017.338,2.338,2.338,0,0,0,.365,1.258,3.635,3.635,0,0,0,1.324,1.308,3,3,0,0,0,1.346.321h.223a7.788,7.788,0,0,0,1.944-3.051,5.251,5.251,0,0,0,.272-1.563,3,3,0,0,0-.081-.7,1.445,1.445,0,0,0-.992-1.15,2.54,2.54,0,0,0-.878-.157Zm-3.83,5.988v.124a.593.593,0,0,0-.017.142,3.468,3.468,0,0,0,.333,1.82.642.642,0,0,0,.164.148.488.488,0,0,0,.233.06h.082a2.768,2.768,0,0,0,.926-.25c.137-.077.273-.159.4-.24a1.826,1.826,0,0,1,.207-.146,4.548,4.548,0,0,1-2.326-1.656Zm14.682-8.446a.567.567,0,0,1,.577.382.543.543,0,0,1,.049.223.62.62,0,0,1-.212.447l-1.117.975a4.155,4.155,0,0,0-1.166,2.392c-.016.2-.027.387-.027.577a6.892,6.892,0,0,0,.146,1.329,8.605,8.605,0,0,0,.507,1.574,8.317,8.317,0,0,0,.333.768l.033.094c.087-.044.173-.088.272-.143,1.04-.6,2.114-1.285,3.213-2.07a10.35,10.35,0,0,0,2.642-2.637,1.3,1.3,0,0,1,.365-.065c.377,0,.594.24.66.719a11.388,11.388,0,0,1-2.828,2.888,35.82,35.82,0,0,1-3.226,2.076c-.212.115-.414.234-.6.349.032.076.071.153.109.223.12.255.218.485.289.686a2.3,2.3,0,0,1,.146.61.464.464,0,0,1,.011.126,1.044,1.044,0,0,1-.175.544.973.973,0,0,1-.621.431,1.63,1.63,0,0,1-.4.049,1.592,1.592,0,0,1-.321-.033.121.121,0,0,0-.049-.016,3.667,3.667,0,0,1-1.5-.561,1.112,1.112,0,0,1-.43-.572,1.288,1.288,0,0,1-.033-.288.937.937,0,0,1,.1-.431,2.568,2.568,0,0,1,.86-.909,3.178,3.178,0,0,1,.305-.192l.192-.131a.8.8,0,0,1-.082-.157c-.066-.148-.126-.289-.186-.425s-.131-.3-.212-.486a12.061,12.061,0,0,1-.594-1.944,6.428,6.428,0,0,1-.092-2.142,5.726,5.726,0,0,1,.566-1.667,5.945,5.945,0,0,1,.98-1.46,6.625,6.625,0,0,1,1-.878l.146-.115a.015.015,0,0,1,.016-.016l.033-.033a.584.584,0,0,1,.316-.093ZM156.76,31.1a1.209,1.209,0,0,0-.126.082,1.014,1.014,0,0,0-.142.1,1.859,1.859,0,0,0-.2.157.471.471,0,0,0-.1.126l-.033.033a3.468,3.468,0,0,0,.86.288h.049v-.033a.179.179,0,0,0,0-.054.329.329,0,0,0-.027-.055.914.914,0,0,0-.071-.2c-.039-.082-.077-.164-.12-.245s-.061-.142-.082-.2Z" transform="translate(30.558 3.943)" fill="#ffdc4d" stroke="#ffdc4d" stroke-miterlimit="10" stroke-width="0.5"/>
      <path id="Path_697" data-name="Path 697" d="M97.788,39.956q-.236.286-.465.576a8.157,8.157,0,0,0-1.488,2.539c-.006.065-.01.116-.01.159v.115h.01a.014.014,0,0,0,.016.016.04.04,0,0,1,.028.006s.016,0,.033,0a.224.224,0,0,1,.054,0l.175.017a6.424,6.424,0,0,0,1.787-.436c5.092-1.933,12.213-6.869,12.213-12.977a3.173,3.173,0,0,0-.017-.331,1.493,1.493,0,0,0-.812-1.264,5.721,5.721,0,0,0-2.523-.448,20.066,20.066,0,0,0-3.094.289q-3.564.654-7.823,1.8c-1.711.447-3.422.867-5.121,1.264s-3.325.691-4.855.909a9.913,9.913,0,0,1-1.275.093,5.375,5.375,0,0,1-1.356-.157,2.2,2.2,0,0,1-1.837-2.219,3.3,3.3,0,0,1,.109-.8,7.859,7.859,0,0,1,.895-2.185,30.078,30.078,0,0,1,4.015-5.2,66.73,66.73,0,0,1,6.008-5.656,74.619,74.619,0,0,1,6.92-5.176,40.708,40.708,0,0,1,6.711-3.638,13.908,13.908,0,0,1,4.294-1.1c.11-.01.212-.016.322-.016a6.217,6.217,0,0,1,.909.066,3.727,3.727,0,0,1,2.016.975,3.894,3.894,0,0,1,1.128,2.1,4.721,4.721,0,0,1,.082.865,5.3,5.3,0,0,1-.507,2.131,9.359,9.359,0,0,1-1.379,2.2,14.826,14.826,0,0,1-1.581,1.706l-.719.653a2.241,2.241,0,0,1-.445-.256.524.524,0,0,1-.187-.223,1.085,1.085,0,0,1-.054-.207,1.175,1.175,0,0,0-.066-.255l.654-.605a14.278,14.278,0,0,0,1.455-1.563,8.948,8.948,0,0,0,1.263-2.092,3.826,3.826,0,0,0,.349-1.548,3.09,3.09,0,0,0-.049-.544,2.694,2.694,0,0,0-.736-1.519,2.5,2.5,0,0,0-1.4-.616,4.367,4.367,0,0,0-.67-.05,11.657,11.657,0,0,0-4.217,1.019,39.211,39.211,0,0,0-6.505,3.536A76.021,76.021,0,0,0,93.24,17a68.6,68.6,0,0,0-5.916,5.574,27.522,27.522,0,0,0-3.836,4.964,7.249,7.249,0,0,0-.785,1.836,2.882,2.882,0,0,0-.065.561.924.924,0,0,0,.114.506c.087.223.349.4.8.528a3.735,3.735,0,0,0,1.008.11A9.718,9.718,0,0,0,85.739,31c1.449-.2,2.99-.5,4.635-.878s3.318-.8,5.019-1.231q4.363-1.161,8.111-1.851A19.537,19.537,0,0,1,107,26.7h.926a4.185,4.185,0,0,1,1.994.653,2.834,2.834,0,0,1,1.4,2.153c.012.164.016.332.016.513,0,6.49-7.542,12.009-13,14.077a5.6,5.6,0,0,1-2.153.511,2.627,2.627,0,0,1-.414-.033,1.393,1.393,0,0,1-.975-.588,1.567,1.567,0,0,1-.19-.752,1.784,1.784,0,0,1,.049-.415,8.181,8.181,0,0,1,1.7-3.018c.127-.161.255-.323.386-.482l1.039.642Z" transform="translate(17.149 0.765)" fill="#ffdc4d" stroke="#ffdc4d" stroke-miterlimit="10" stroke-width="0.5" fill-rule="evenodd"/>
    </g>
  </g>
</svg>
