<svg xmlns="http://www.w3.org/2000/svg" width="132" height="19.143" viewBox="0 0 132 19.143">
  <g id="rating" transform="translate(-2.001 -3.427)">
    <path id="Path_635" data-name="Path 635" d="M10.928,4.093,8.487,9.043l-5.462.8a1.2,1.2,0,0,0-.662,2.041l3.951,3.851L5.38,21.17a1.2,1.2,0,0,0,1.735,1.26L12,19.861l4.886,2.568a1.2,1.2,0,0,0,1.735-1.26l-.935-5.439,3.951-3.851a1.2,1.2,0,0,0-.662-2.041l-5.462-.8-2.441-4.95A1.2,1.2,0,0,0,10.928,4.093Z" fill="#ffdc4d"/>
    <path id="Path_636" data-name="Path 636" d="M38.928,4.093l-2.441,4.95-5.462.8a1.2,1.2,0,0,0-.662,2.041l3.951,3.851L33.38,21.17a1.2,1.2,0,0,0,1.735,1.26L40,19.861l4.886,2.568a1.2,1.2,0,0,0,1.735-1.26l-.935-5.439,3.951-3.851a1.2,1.2,0,0,0-.662-2.041l-5.462-.8-2.441-4.95A1.2,1.2,0,0,0,38.928,4.093Z" fill="#ffdc4d"/>
    <path id="Path_637" data-name="Path 637" d="M66.928,4.093l-2.441,4.95-5.462.8a1.2,1.2,0,0,0-.662,2.041l3.951,3.851L61.38,21.17a1.2,1.2,0,0,0,1.735,1.26L68,19.861l4.886,2.568a1.2,1.2,0,0,0,1.735-1.26l-.935-5.439,3.951-3.851a1.2,1.2,0,0,0-.662-2.041l-5.462-.8-2.441-4.95A1.2,1.2,0,0,0,66.928,4.093Z" fill="#ffdc4d"/>
    <path id="Path_638" data-name="Path 638" d="M94.928,4.093l-2.441,4.95-5.462.8a1.2,1.2,0,0,0-.662,2.041l3.951,3.851L89.38,21.17a1.2,1.2,0,0,0,1.735,1.26L96,19.861l4.886,2.568a1.2,1.2,0,0,0,1.734-1.26l-.934-5.439,3.951-3.851a1.2,1.2,0,0,0-.661-2.041l-5.462-.8-2.441-4.95A1.2,1.2,0,0,0,94.928,4.093Z" fill="#ffdc4d"/>
    <path id="Path_639" data-name="Path 639" d="M122.928,4.093l-2.441,4.95-5.462.8a1.2,1.2,0,0,0-.662,2.041l3.952,3.851-.935,5.439a1.2,1.2,0,0,0,1.735,1.26L124,19.861l4.886,2.568a1.2,1.2,0,0,0,1.734-1.26l-.934-5.439,3.951-3.851a1.2,1.2,0,0,0-.661-2.041l-5.462-.8-2.441-4.95A1.2,1.2,0,0,0,122.928,4.093Z" fill="#ffdc4d"/>
  </g>
</svg>
